<svg xmlns="http://www.w3.org/2000/svg" width="720" height="720" viewBox="0 0 720 720" role="img" aria-labelledby="title desc">
  <title id="title">NURA UPI QR placeholder</title>
  <desc id="desc">Replace this placeholder with the brand's real UPI QR code before accepting direct UPI payments.</desc>
  <rect width="720" height="720" fill="#faf4ef"/>
  <rect x="44" y="44" width="632" height="632" rx="28" fill="#ffffff" stroke="#330025" stroke-width="10"/>
  <rect x="92" y="92" width="154" height="154" rx="8" fill="#330025"/>
  <rect x="124" y="124" width="90" height="90" rx="6" fill="#faf4ef"/>
  <rect x="148" y="148" width="42" height="42" fill="#330025"/>
  <rect x="474" y="92" width="154" height="154" rx="8" fill="#330025"/>
  <rect x="506" y="124" width="90" height="90" rx="6" fill="#faf4ef"/>
  <rect x="530" y="148" width="42" height="42" fill="#330025"/>
  <rect x="92" y="474" width="154" height="154" rx="8" fill="#330025"/>
  <rect x="124" y="506" width="90" height="90" rx="6" fill="#faf4ef"/>
  <rect x="148" y="530" width="42" height="42" fill="#330025"/>
  <g fill="#330025">
    <rect x="298" y="108" width="38" height="38"/>
    <rect x="356" y="108" width="38" height="92"/>
    <rect x="286" y="188" width="80" height="38"/>
    <rect x="414" y="178" width="34" height="72"/>
    <rect x="282" y="282" width="44" height="44"/>
    <rect x="348" y="282" width="118" height="44"/>
    <rect x="498" y="292" width="44" height="44"/>
    <rect x="566" y="292" width="44" height="102"/>
    <rect x="100" y="304" width="94" height="38"/>
    <rect x="218" y="304" width="38" height="86"/>
    <rect x="302" y="370" width="38" height="118"/>
    <rect x="370" y="366" width="44" height="44"/>
    <rect x="452" y="374" width="72" height="38"/>
    <rect x="568" y="446" width="44" height="44"/>
    <rect x="288" y="530" width="74" height="38"/>
    <rect x="392" y="500" width="38" height="110"/>
    <rect x="474" y="492" width="154" height="38"/>
    <rect x="474" y="558" width="44" height="44"/>
    <rect x="562" y="562" width="66" height="66"/>
  </g>
  <rect x="118" y="340" width="484" height="110" rx="18" fill="#faf4ef" stroke="#d8b56d" stroke-width="6"/>
  <text x="360" y="380" text-anchor="middle" font-family="Arial, Helvetica, sans-serif" font-size="24" font-weight="700" fill="#330025">ADD REAL UPI QR</text>
  <text x="360" y="414" text-anchor="middle" font-family="Arial, Helvetica, sans-serif" font-size="18" fill="#4c063b">Replace this SVG before going live</text>
</svg>
